<svg width="618" height="618" viewBox="0 0 618 618" fill="none" xmlns="http://www.w3.org/2000/svg">
<path d="M308.99 617.29C479.37 617.29 617.49 479.17 617.49 308.79C617.49 138.41 479.37 0.290039 308.99 0.290039C138.61 0.290039 0.490234 138.41 0.490234 308.79C0.490234 479.17 138.61 617.29 308.99 617.29Z" fill="#6C63FF"/>
<path d="M470.859 461.82C470.859 510.52 394.299 465.98 312.219 465.98C230.139 465.98 147.119 508.68 147.119 459.98C147.119 432.21 173.579 393.59 211.539 365.54C240.139 344.4 275.259 329.26 310.539 329.26C346.819 329.26 382.359 345.65 410.709 368.15C446.489 396.52 470.859 434.64 470.859 461.82Z" fill="#444053"/>
<path d="M410.699 368.13C367.069 361.56 288.159 353.55 211.539 365.52C240.139 344.38 275.259 329.24 310.539 329.24C346.809 329.24 382.349 345.63 410.699 368.13Z" fill="#F6F8FB"/>
<path opacity="0.05" d="M147.12 89.02C147.12 89.02 54.1899 148.43 54.9499 241.36C55.7099 334.29 147.12 89.02 147.12 89.02Z" fill="black"/>
<path d="M199.31 266.34C205.18 266.01 232.81 263.93 250.36 253.92C253.179 252.262 256.363 251.324 259.63 251.19C265.21 251.03 271.63 253.36 267.52 266.4C260.86 287.73 222.19 311.73 198.19 310.4C175.11 309.12 147.73 299.82 129.65 267.12C127.918 263.974 127.065 260.419 127.18 256.83C127.39 250.23 129.79 241.96 142.18 251.18C158.92 263.63 190.68 265.99 197.05 266.34C197.803 266.38 198.557 266.38 199.31 266.34Z" fill="#444053"/>
<path d="M421.31 266.34C427.18 266.01 454.81 263.93 472.36 253.92C475.179 252.262 478.363 251.324 481.63 251.19C487.21 251.03 493.63 253.36 489.52 266.4C482.86 287.73 444.19 311.73 420.19 310.4C397.11 309.12 369.73 299.82 351.65 267.12C349.918 263.974 349.065 260.419 349.18 256.83C349.39 250.23 351.79 241.96 364.18 251.18C380.92 263.63 412.68 265.99 419.05 266.34C419.803 266.38 420.557 266.38 421.31 266.34Z" fill="#444053"/>
</svg>
